# xmcd
#
# Track frame offsets: 
#        150
#        15707
#        29104
#        44527
#        63164
#        78436
#        101434
#        116139
#        132559
#        147841
#        163841
#        184476
#        198884
#
# Disc length: 2866 seconds
#
# Revision: 0
# Processed by: cddbd v1.5.2PL0 Copyright (c) Steve Scherf et al.
# Submitted via: ExactAudioCopyFreeDBPlugin 1.0
#
DISCID=be0b300d
DTITLE=Lady Antebellum - Ocean
DYEAR=2019
DGENRE=Country
TTITLE0=What If I Never Get Over You
TTITLE1=Pictures
TTITLE2=Crazy Love
TTITLE3=You Can Do You
TTITLE4=What I'm Leaving For
TTITLE5=Be Patient With My Love
TTITLE6=Alright
TTITLE7=Let It Be Love
TTITLE8=On A Night Like This
TTITLE9=Boots
TTITLE10=The Thing That Wrecks You (feat. Little Big Town)
TTITLE11=Mansion
TTITLE12=Ocean
EXTD=
EXTT0=
EXTT1=
EXTT2=
EXTT3=
EXTT4=
EXTT5=
EXTT6=
EXTT7=
EXTT8=
EXTT9=
EXTT10=
EXTT11=
EXTT12=
PLAYORDER=
